<?xml version="1.0" encoding="UTF-8" standalone="no"?>
<!-- Generator: Adobe Illustrator 16.0.0, SVG Export Plug-In . SVG Version: 6.00 Build 0)  -->

<svg
   xmlns:dc="http://purl.org/dc/elements/1.1/"
   xmlns:cc="http://creativecommons.org/ns#"
   xmlns:rdf="http://www.w3.org/1999/02/22-rdf-syntax-ns#"
   xmlns:svg="http://www.w3.org/2000/svg"
   xmlns="http://www.w3.org/2000/svg"
   xmlns:sodipodi="http://sodipodi.sourceforge.net/DTD/sodipodi-0.dtd"
   xmlns:inkscape="http://www.inkscape.org/namespaces/inkscape"
   version="1.1"
   id="Layer_1"
   x="0px"
   y="0px"
   width="247.82px"
   height="41.007px"
   viewBox="0 0 247.82 41.007"
   enable-background="new 0 0 247.82 41.007"
   xml:space="preserve"
   sodipodi:docname="logo-black-tp.svg"
   inkscape:version="0.92.1 r15371"><metadata
   id="metadata54"><rdf:RDF><cc:Work
       rdf:about=""><dc:format>image/svg+xml</dc:format><dc:type
         rdf:resource="http://purl.org/dc/dcmitype/StillImage" /><dc:title></dc:title></cc:Work></rdf:RDF></metadata><defs
   id="defs52" /><sodipodi:namedview
   pagecolor="#ffffff"
   bordercolor="#666666"
   borderopacity="1"
   objecttolerance="10"
   gridtolerance="10"
   guidetolerance="10"
   inkscape:pageopacity="0"
   inkscape:pageshadow="2"
   inkscape:window-width="1366"
   inkscape:window-height="705"
   id="namedview50"
   showgrid="false"
   inkscape:zoom="1.3961746"
   inkscape:cx="112.54655"
   inkscape:cy="20.5035"
   inkscape:window-x="-8"
   inkscape:window-y="-8"
   inkscape:window-maximized="1"
   inkscape:current-layer="Layer_1" />
<g
   id="g28"
   style="fill:#000000">
	<g
   id="g26"
   style="fill:#000000">
		<polygon
   points="71.29,5.866 52.063,5.866 52.063,10.26 59.192,10.26 59.192,31.967 63.981,31.967 63.981,10.26     71.29,10.26   "
   id="polygon2"
   fill="#FFFFFF"
   style="fill:#000000" />
		<path
   d="M38.327,30.62c0.225-0.396,0.429-0.804,0.629-1.216c0.077-0.157,0.156-0.315,0.23-0.479    c0.155-0.348,0.302-0.704,0.438-1.063c0.096-0.241,0.186-0.483,0.27-0.731c0.107-0.317,0.212-0.639,0.306-0.965    c0.09-0.312,0.167-0.623,0.242-0.938c0.065-0.287,0.138-0.574,0.191-0.865c0.075-0.394,0.131-0.791,0.184-1.188    c0.03-0.235,0.071-0.467,0.093-0.705c0.062-0.645,0.099-1.299,0.099-1.961C41.009,9.18,31.829,0,20.505,0C9.181,0,0,9.18,0,20.504    c0,0.662,0.038,1.316,0.102,1.961c0.021,0.238,0.062,0.471,0.093,0.705c0.053,0.4,0.104,0.797,0.181,1.188    c0.058,0.293,0.126,0.58,0.194,0.867c0.075,0.316,0.152,0.629,0.242,0.939c0.093,0.326,0.194,0.646,0.306,0.965    c0.084,0.248,0.174,0.49,0.267,0.732c0.141,0.359,0.283,0.717,0.441,1.062c0.073,0.162,0.153,0.32,0.23,0.479    c3.314,6.861,10.318,11.604,18.449,11.604C28.147,41.008,34.8,36.82,38.327,30.62L38.327,30.62z M4.62,30.266v-2.68    c0-2.807,2.275-5.082,5.081-5.082c1.419,0,2.689,0.588,3.605,1.529c-0.976,1.41-1.549,3.117-1.549,4.957v7.996    C8.819,35.422,6.36,33.09,4.62,30.266 M23.984,18.364c-0.206,0.123-0.419,0.236-0.638,0.338c-0.043,0.02-0.083,0.043-0.126,0.061    c-0.256,0.113-0.518,0.207-0.786,0.287c-0.056,0.018-0.109,0.029-0.163,0.043c-0.222,0.061-0.444,0.107-0.672,0.145    c-0.077,0.014-0.154,0.025-0.231,0.035c-0.283,0.037-0.57,0.062-0.863,0.062s-0.58-0.025-0.861-0.062    c-0.078-0.01-0.154-0.021-0.231-0.035c-0.228-0.037-0.453-0.084-0.672-0.145c-0.054-0.014-0.11-0.025-0.163-0.043    c-0.27-0.08-0.533-0.174-0.786-0.287c-0.043-0.018-0.083-0.041-0.126-0.061c-0.219-0.102-0.432-0.215-0.638-0.338    c-0.046-0.029-0.094-0.057-0.142-0.086c-0.479-0.307-0.922-0.672-1.31-1.086c-0.021-0.025-0.045-0.049-0.067-0.074    c-0.395-0.434-0.736-0.918-1.01-1.447c-0.479-0.928-0.758-1.98-0.758-3.102c0-3.736,3.029-6.766,6.764-6.766    c3.735,0,6.766,3.029,6.766,6.766c0,1.121-0.277,2.174-0.76,3.102c-0.271,0.529-0.613,1.012-1.01,1.447    c-0.021,0.025-0.044,0.051-0.065,0.074c-0.391,0.416-0.829,0.779-1.312,1.086C24.078,18.307,24.03,18.334,23.984,18.364     M11.885,11.02c-0.091,0.504-0.146,1.02-0.146,1.549c0,2.066,0.723,3.967,1.925,5.467c-0.864,1.275-2.307,2.119-3.965,2.119    c-2.67,0-4.834-2.164-4.834-4.834c0-2.67,2.164-4.834,4.834-4.834C10.49,10.487,11.23,10.682,11.885,11.02 M29.269,12.569    c0-0.529-0.058-1.045-0.146-1.549c0.657-0.338,1.397-0.533,2.188-0.533c2.669,0,4.834,2.164,4.834,4.834    c0,2.67-2.165,4.834-4.834,4.834c-1.658,0-3.103-0.844-3.967-2.119C28.545,16.536,29.269,14.635,29.269,12.569 M13.759,28.991    c0-1.097,0.268-2.125,0.729-3.039c0.271-0.541,0.617-1.037,1.018-1.481c0.017-0.017,0.03-0.031,0.044-0.05    c0.396-0.426,0.846-0.803,1.336-1.119c0.036-0.021,0.074-0.045,0.112-0.065c0.212-0.131,0.434-0.247,0.659-0.354    c0.041-0.018,0.08-0.041,0.121-0.057c0.258-0.115,0.521-0.216,0.796-0.296c0.047-0.016,0.095-0.022,0.142-0.036    c0.228-0.063,0.458-0.111,0.693-0.152c0.076-0.012,0.152-0.022,0.229-0.034c0.282-0.035,0.57-0.062,0.865-0.062    c0.294,0,0.582,0.024,0.867,0.062c0.077,0.012,0.152,0.022,0.229,0.034c0.233,0.041,0.466,0.089,0.69,0.152    c0.047,0.014,0.098,0.021,0.145,0.036c0.271,0.08,0.538,0.181,0.795,0.296c0.041,0.016,0.081,0.039,0.122,0.057    c0.227,0.107,0.445,0.226,0.658,0.354c0.036,0.021,0.074,0.046,0.111,0.065c0.492,0.316,0.941,0.693,1.335,1.119    c0.017,0.019,0.03,0.033,0.044,0.05c0.401,0.444,0.746,0.94,1.021,1.481c0.462,0.914,0.729,1.942,0.729,3.039v8.899    c-2.095,0.812-4.362,1.276-6.746,1.276c-2.382,0-4.65-0.465-6.746-1.276L13.759,28.991L13.759,28.991z M29.251,36.986v-7.995    c0-1.841-0.574-3.548-1.547-4.957c0.916-0.941,2.188-1.529,3.605-1.529c2.806,0,5.081,2.274,5.081,5.082v2.681    C34.649,33.09,32.191,35.422,29.251,36.986"
   id="path4"
   fill="#FFFFFF"
   style="fill:#000000" />
		<g
   id="g24"
   style="fill:#000000">
			<path
   d="M86.185,7.436c2.057,0,3.589,0.525,4.597,1.574c1.221,1.244,1.832,3.162,1.832,5.754     c0,3.023-0.632,5.027-1.896,6.012c-0.405,0.322-0.718,0.525-0.932,0.611c-0.215,0.086-0.525,0.193-0.933,0.322l4.469,9.258h-5.08     l-3.89-8.904l-3.954-0.451v9.355h-4.5V7.436H86.185z M80.431,18.077h5.336c0.836,0,1.431-0.215,1.782-0.645     c0.354-0.428,0.53-1.295,0.53-2.604c0-1.307-0.191-2.201-0.579-2.684c-0.386-0.483-0.964-0.723-1.734-0.723H80.43L80.431,18.077     L80.431,18.077z"
   id="path6"
   fill="#FFFFFF"
   style="fill:#000000" />
			<path
   d="M97.28,30.967V7.436h4.5v23.531H97.28z"
   id="path8"
   fill="#FFFFFF"
   style="fill:#000000" />
			<path
   d="M106.563,30.967V7.436h10.127c2.336,0,4.027,0.652,5.08,1.961c0.963,1.178,1.443,2.945,1.443,5.303     c0,1.373-0.145,2.551-0.434,3.537c-0.289,0.986-0.643,1.742-1.061,2.266c-0.42,0.524-0.949,0.929-1.594,1.207     c-0.836,0.386-1.768,0.578-2.797,0.578c-0.75,0-1.961-0.099-3.633-0.289c-1.672-0.192-2.551-0.312-2.636-0.354v9.322H106.563z      M116.336,11.422h-5.271v6.879h5.271c0.516,0,0.934-0.098,1.254-0.289c0.729-0.43,1.096-1.521,1.096-3.279     C118.66,12.526,117.879,11.422,116.336,11.422z"
   id="path10"
   fill="#FFFFFF"
   style="fill:#000000" />
			<path
   d="M126.281,15.344v-2.025c0-2.252,0.611-3.848,1.832-4.791c1.115-0.836,2.625-1.264,4.533-1.285     c0.258,0,0.799,0,1.623,0c0.826,0,2.037,0.086,3.633,0.256c1.596,0.172,2.877,0.398,3.842,0.676v3.537     c-2.443-0.215-4.389-0.322-5.834-0.322c-1.447,0-2.225,0-2.332,0c-0.963,0-1.672,0.129-2.121,0.387     c-0.449,0.256-0.676,0.889-0.676,1.896v1.156c0,0.9,0.184,1.5,0.547,1.801c0.365,0.301,1.02,0.449,1.961,0.449h3.73     c2.439,0,4.082,0.977,4.918,2.926c0.428,0.986,0.643,2.091,0.643,3.312v1.574c0,2.873-0.953,4.748-2.861,5.625     c-0.984,0.475-2.195,0.709-3.633,0.709c-3.879,0-6.912-0.322-9.098-0.965v-3.537c2.357,0.236,4.416,0.354,6.172,0.354     c1.758,0,2.781-0.021,3.07-0.063c0.289-0.041,0.584-0.128,0.885-0.257c0.643-0.278,0.965-0.848,0.965-1.705v-1.254     c0-1.112-0.354-1.799-1.061-2.057c-0.279-0.107-0.633-0.16-1.062-0.16h-3.6C128.307,21.581,126.281,19.502,126.281,15.344z"
   id="path12"
   fill="#FFFFFF"
   style="fill:#000000" />
			<path
   d="M146.11,25.148c-0.16-0.75-0.283-1.606-0.369-2.571c-0.086-0.966-0.129-2.127-0.129-3.488     c0-1.361,0.08-2.646,0.242-3.857c0.16-1.211,0.379-2.24,0.658-3.086c0.275-0.846,0.652-1.57,1.125-2.17     c0.471-0.6,0.947-1.072,1.43-1.414c0.48-0.344,1.078-0.611,1.785-0.805c1.111-0.32,2.287-0.482,3.519-0.482     c1.232,0,2.133,0.021,2.701,0.064c0.566,0.043,1.168,0.135,1.799,0.273c0.633,0.141,1.174,0.338,1.625,0.596     c0.449,0.256,0.904,0.584,1.365,0.98s0.842,0.898,1.141,1.51c0.303,0.611,0.568,1.312,0.807,2.105     c0.471,1.586,0.707,3.439,0.707,5.562c0,2.121-0.08,3.756-0.24,4.902c-0.162,1.146-0.371,2.133-0.627,2.957     c-0.258,0.824-0.607,1.531-1.045,2.121c-0.439,0.59-0.9,1.062-1.383,1.414c-0.483,0.354-1.066,0.629-1.754,0.818     c-1.586,0.473-3.676,0.621-6.27,0.449c-1.328-0.062-2.292-0.225-2.892-0.48c-0.602-0.257-1.119-0.529-1.561-0.818     c-0.438-0.289-0.809-0.645-1.107-1.062c-0.302-0.418-0.592-0.922-0.867-1.514C146.49,26.568,146.272,25.898,146.11,25.148z      M150.465,14.524c-0.105,0.568-0.189,1.248-0.256,2.041c-0.063,0.793-0.098,1.789-0.098,2.99c0,1.199,0.043,2.222,0.129,3.07     c0.086,0.846,0.23,1.57,0.434,2.17c0.204,0.6,0.512,1.049,0.916,1.35c0.729,0.535,1.888,0.805,3.474,0.805     c1.5,0,2.625-0.277,3.375-0.834c1.051-0.795,1.576-3.045,1.576-6.752c0-2.508-0.137-4.168-0.402-4.982s-0.514-1.393-0.74-1.736     c-0.225-0.342-0.541-0.611-0.947-0.803c-0.663-0.279-1.445-0.418-2.348-0.418s-1.527,0.016-1.881,0.047     c-0.354,0.033-0.729,0.102-1.125,0.209c-0.396,0.107-0.707,0.273-0.932,0.498c-0.227,0.227-0.449,0.531-0.678,0.916     C150.739,13.479,150.573,13.956,150.465,14.524z"
   id="path14"
   fill="#FFFFFF"
   style="fill:#000000" />
			<path
   d="M167.113,30.967l2.059-23.531h6.27l3.922,16.072l3.891-16.072h6.236l2.186,23.531h-4.436l-1.543-15.721     L181.9,30.967h-5.016l-3.953-15.721l-1.383,15.721H167.113z"
   id="path16"
   fill="#FFFFFF"
   style="fill:#000000" />
			<path
   d="M196.291,30.967V7.436h4.566l9.322,15.205V7.436h4.5v23.531h-4.5l-9.355-15.045v15.045H196.291z"
   id="path18"
   fill="#FFFFFF"
   style="fill:#000000" />
			<path
   d="M219.633,30.967V7.436h4.502v23.531H219.633z"
   id="path20"
   fill="#FFFFFF"
   style="fill:#000000" />
			<path
   d="M227.119,30.967l7.941-23.531h5.109l7.65,23.531h-4.789l-1.672-5.209h-7.715l-1.705,5.209H227.119z      M234.836,21.771h5.465l-2.637-8.421L234.836,21.771z"
   id="path22"
   fill="#FFFFFF"
   style="fill:#000000" />
		</g>
	</g>
</g>
<rect
   id="_x3C_Slice_x3E_"
   x="-0.579"
   y="-0.515"
   fill="none"
   width="306"
   height="42" />
<g
   id="g47">
	<line
   fill="none"
   stroke="#000000"
   stroke-width="0.3"
   x1="-0.579"
   y1="-54.515"
   x2="-0.579"
   y2="-18.515"
   id="line31" />
	<line
   fill="none"
   stroke="#000000"
   stroke-width="0.3"
   x1="-54.579"
   y1="-0.515"
   x2="-18.579"
   y2="-0.515"
   id="line33" />
	<line
   fill="none"
   stroke="#000000"
   stroke-width="0.3"
   x1="-54.579"
   y1="41.484"
   x2="-18.579"
   y2="41.484"
   id="line35" />
	<line
   fill="none"
   stroke="#000000"
   stroke-width="0.3"
   x1="-0.579"
   y1="95.484"
   x2="-0.579"
   y2="59.484"
   id="line37" />
	<line
   fill="none"
   stroke="#000000"
   stroke-width="0.3"
   x1="305.421"
   y1="-54.515"
   x2="305.421"
   y2="-18.515"
   id="line39" />
	<line
   fill="none"
   stroke="#000000"
   stroke-width="0.3"
   x1="359.421"
   y1="-0.515"
   x2="323.421"
   y2="-0.515"
   id="line41" />
	<line
   fill="none"
   stroke="#000000"
   stroke-width="0.3"
   x1="359.421"
   y1="41.484"
   x2="323.421"
   y2="41.484"
   id="line43" />
	<line
   fill="none"
   stroke="#000000"
   stroke-width="0.3"
   x1="305.421"
   y1="95.484"
   x2="305.421"
   y2="59.484"
   id="line45" />
</g>
</svg>